# xmcd
#
# Track frame offsets: 
#        150
#        16585
#        30320
#        46310
#        61990
#        73920
#        84867
#        97280
#        108220
#        123475
#        142985
#        153680
#
# Disc length: 2227 seconds
#
# Revision: 2
# Processed by: cddbd v1.5.2PL0 Copyright (c) Steve Scherf et al.
# Submitted via: ExactAudioCopy v0.99pb5
#
DISCID=9708b10c
DTITLE=Carey Bell - Last Night
DYEAR=1973
DGENRE=Blues
TTITLE0=Last Night
TTITLE1=Taking You Downtown
TTITLE2=Rosa, I Love Your Soul
TTITLE3=I'm Worried
TTITLE4=Cho' Cho' Blues
TTITLE5=Tomorrow Night
TTITLE6=She's 19 Years Old
TTITLE7=Leaving In The Morning
TTITLE8=Love Pretty Women
TTITLE9=Mean Mistreater
TTITLE10=Freda
TTITLE11=I Want To See You Tomorrow Night
EXTD=
EXTT0=
EXTT1=
EXTT2=
EXTT3=
EXTT4=
EXTT5=
EXTT6=
EXTT7=
EXTT8=
EXTT9=
EXTT10=
EXTT11=
PLAYORDER=
